HIERARCHY
ROOT Hips
{
 OFFSET 0.000000 0.000000 0.000000
 CHANNELS 6 Xposition Yposition Zposition Yrotation Xrotation Zrotation
 JOINT Chest
 {
  OFFSET 0.000000 9.857222 0.000240
  CHANNELS 3 Yrotation Xrotation Zrotation
  JOINT Chest2
  {
   OFFSET 0.000000 10.876940 -0.000436
   CHANNELS 3 Yrotation Xrotation Zrotation
   JOINT Chest3
   {
    OFFSET 0.000000 9.827798 0.000000
    CHANNELS 3 Yrotation Xrotation Zrotation
    JOINT Chest4
    {
     OFFSET 0.000000 9.827798 0.000000
     CHANNELS 3 Yrotation Xrotation Zrotation
     JOINT Neck
     {
      OFFSET 0.000000 13.831992 0.000000
      CHANNELS 3 Yrotation Xrotation Zrotation
      JOINT Head
      {
       OFFSET 0.000000 9.147643 -0.001036
       CHANNELS 3 Yrotation Xrotation Zrotation
       End Site
       {
        OFFSET 0.000000 17.515799 -0.000541
       }
      }
     }
     JOINT RightCollar
     {
      OFFSET -3.001579 7.717577 0.000000
      CHANNELS 3 Yrotation Xrotation Zrotation
      JOINT RightShoulder
      {
       OFFSET -14.002642 0.000000 0.000000
       CHANNELS 3 Yrotation Xrotation Zrotation
       JOINT RightElbow
       {
        OFFSET -30.053852 0.000000 0.000000
        CHANNELS 3 Yrotation Xrotation Zrotation
        JOINT RightWrist
        {
         OFFSET -24.564923 0.000000 -0.000000
         CHANNELS 3 Yrotation Xrotation Zrotation
         End Site
         {
          OFFSET -18.334355 0.000000 0.000000
         }
        }
       }
      }
     }
     JOINT LeftCollar
     {
      OFFSET 3.001579 7.717577 0.000000
      CHANNELS 3 Yrotation Xrotation Zrotation
      JOINT LeftShoulder
      {
       OFFSET 14.002642 0.000000 0.000000
       CHANNELS 3 Yrotation Xrotation Zrotation
       JOINT LeftElbow
       {
        OFFSET 30.053852 0.000000 0.000000
        CHANNELS 3 Yrotation Xrotation Zrotation
        JOINT LeftWrist
        {
         OFFSET 24.564923 0.000000 -0.000000
         CHANNELS 3 Yrotation Xrotation Zrotation
         End Site
         {
          OFFSET 18.334355 0.000000 0.000000
         }
        }
       }
      }
     }
    }
   }
  }
 }
 JOINT RightHip
 {
  OFFSET -8.003235 -0.001175 -0.000120
  CHANNELS 3 Yrotation Xrotation Zrotation
  JOINT RightKnee
  {
   OFFSET 0.000000 -41.759727 0.000113
   CHANNELS 3 Yrotation Xrotation Zrotation
   JOINT RightAnkle
   {
    OFFSET 0.000000 -40.728748 0.000159
    CHANNELS 3 Yrotation Xrotation Zrotation
    JOINT RightToe
    {
     OFFSET 0.000000 -6.515296 14.732841
     CHANNELS 3 Yrotation Xrotation Zrotation
     End Site
     {
      OFFSET 0.000000 -1.502839 6.412115
     }
    }
   }
  }
 }
 JOINT LeftHip
 {
  OFFSET 8.003235 -0.001175 -0.000120
  CHANNELS 3 Yrotation Xrotation Zrotation
  JOINT LeftKnee
  {
   OFFSET 0.000000 -41.759727 0.000113
   CHANNELS 3 Yrotation Xrotation Zrotation
   JOINT LeftAnkle
   {
    OFFSET 0.000000 -40.728748 0.000159
    CHANNELS 3 Yrotation Xrotation Zrotation
    JOINT LeftToe
    {
     OFFSET 0.000000 -6.515296 14.732841
     CHANNELS 3 Yrotation Xrotation Zrotation
     End Site
     {
      OFFSET 0.000000 -1.502839 6.412115
     }
    }
   }
  }
 }
}
MOTION
Frames: 14
Frame Time: 0.016667
5.845183 90.236011 15.658723 -31.743664 -8.916298 1.075200 -0.768795 0.801782 -1.758929 0.110118 0.783009 -0.785367 0.110118 0.783009 -0.785367 0.083594 0.587116 -0.589157 3.896328 11.588429 -2.863827 8.709060 -14.316113 -7.175595 5.213207 -1.932912 -1.625187 44.717668 27.324104 -22.764376 133.469680 -12.718448 -27.864073 8.123025 1.220875 4.215441 -4.974114 1.196721 13.853729 -42.841272 10.202947 32.888521 -131.224464 -23.105157 68.070532 5.198317 1.117783 -4.636755 -13.436983 7.665098 -6.237468 5.126736 8.583300 -0.985640 0.247618 -7.437882 3.159167 -0.104362 0.366943 0.037223 -24.667127 22.017005 -1.584944 31.220345 2.798507 -8.909572 3.954395 -10.965101 -1.769661 0.245978 -0.279004 0.161086
5.889162 90.216356 15.727597 -31.688939 -8.871471 1.055524 -0.786068 0.629122 -1.636136 0.118625 0.724234 -0.728409 0.118625 0.724234 -0.728409 0.089831 0.543035 -0.546440 3.921802 11.834194 -2.937999 8.762878 -13.850896 -7.300981 4.477955 -1.401521 -2.191522 45.922100 25.565970 -23.006238 135.724163 -12.152073 -26.649546 8.147388 1.089450 4.755203 -3.910601 2.191912 14.059889 -42.707992 10.670889 32.087636 -129.737147 -24.260922 66.377957 5.393677 1.021991 -4.342333 -13.646409 7.646490 -6.298369 5.187355 8.549715 -0.982207 0.218163 -7.482246 3.207246 -0.101753 0.409492 0.027271 -24.566663 22.026856 -1.555769 31.125082 2.750718 -8.928048 3.853723 -11.088480 -1.760781 0.321542 -0.162201 0.194804
5.919035 90.193832 15.797355 -31.647599 -8.885428 1.013064 -0.830676 0.462015 -1.381396 0.087076 0.636730 -0.620254 0.087076 0.636730 -0.620254 0.065953 0.477460 -0.465277 3.982987 12.172576 -3.074550 8.900261 -13.203818 -7.549325 3.851051 -0.860465 -3.108888 48.396277 22.495410 -23.613084 137.183628 -13.202786 -26.224842 8.278426 1.008067 4.813618 -3.295654 2.957498 13.759245 -42.220320 11.668839 31.125875 -128.305868 -25.429500 64.068516 5.633538 0.817283 -4.043182 -13.651249 7.709419 -6.305198 5.158962 8.533418 -0.994497 0.153089 -7.533963 3.262903 -0.101556 0.443618 0.016521 -24.677481 22.089835 -1.600884 31.119050 2.706046 -8.947610 3.897468 -11.211312 -1.755718 0.381847 -0.057782 0.216362
5.943589 90.170057 15.857077 -31.593233 -8.968885 0.989120 -1.039953 0.204241 -0.992730 -0.020145 0.506176 -0.452898 -0.020145 0.506176 -0.452898 -0.014734 0.379648 -0.339654 4.156448 12.628636 -3.295116 9.270486 -12.317131 -7.988157 4.046743 -0.304830 -4.138684 51.162008 19.348965 -23.953864 138.163556 -14.545495 -27.145723 8.546757 0.986481 4.279613 -2.860113 3.751621 12.899905 -41.298131 13.256404 30.038353 -127.241644 -26.296717 61.546381 5.983565 0.636317 -3.789791 -13.456636 7.832594 -6.298493 5.010554 8.569531 -1.023477 0.056117 -7.619676 3.320629 -0.099619 0.483561 0.009806 -25.016186 22.210216 -1.751196 31.271828 2.651148 -8.994012 3.911751 -11.318682 -1.721612 0.428004 0.036587 0.227533
5.957996 90.153358 15.907531 -31.575309 -9.209276 0.989727 -1.319994 -0.050337 -0.571449 -0.164272 0.372354 -0.275535 -0.164272 0.372354 -0.275535 -0.123036 0.279340 -0.206551 4.399715 13.119775 -3.521318 9.766241 -11.355208 -8.456811 5.075370 0.303724 -4.999859 53.020011 17.119252 -24.246459 139.493059 -15.351710 -29.830785 8.898858 0.997581 3.377559 -2.010276 5.032945 11.892047 -40.593738 14.877217 29.188015 -126.459107 -26.949064 58.860036 6.350027 0.560519 -3.754076 -13.057206 8.101270 -6.297432 4.760007 8.646469 -1.069512 -0.058452 -7.707057 3.375225 -0.097331 0.505636 0.006607 -25.439415 22.462994 -2.014309 31.478645 2.596189 -9.053269 3.961511 -11.388877 -1.682579 0.467483 0.093058 0.234888
5.963913 90.150671 15.948550 -31.611651 -9.568806 0.999081 -1.623396 -0.305081 -0.168901 -0.339309 0.219030 -0.109539 -0.339309 0.219030 -0.109539 -0.254442 0.164333 -0.082032 4.701542 13.614080 -3.712904 10.352628 -10.382262 -8.876830 6.195946 1.208925 -5.734834 54.502583 15.514901 -24.740298 141.216315 -15.718483 -33.873085 9.233023 0.976196 2.464150 -0.830170 6.963961 10.898429 -40.001366 15.718613 28.847468 -125.792536 -27.626519 55.049207 6.824828 0.363017 -3.775478 -12.516914 8.477338 -6.290206 4.434764 8.744380 -1.123564 -0.150530 -7.745976 3.414656 -0.091781 0.475955 0.010178 -25.945895 22.793563 -2.354261 31.732121 2.581072 -9.123069 4.085705 -11.400410 -1.629925 0.462811 0.075568 0.223730
5.977429 90.158555 15.963284 -31.587258 -9.870225 1.010869 -1.890461 -0.604072 0.159307 -0.487651 0.060798 0.032218 -0.487651 0.060798 0.032218 -0.365741 0.045573 0.024212 4.941429 14.048867 -3.869384 10.811038 -9.529168 -9.208739 6.870758 2.639874 -6.385423 56.017319 14.225848 -25.424005 142.559044 -15.314358 -38.255730 9.535136 0.860732 1.833783 -0.200942 9.043752 9.777374 -39.364208 16.087642 28.749137 -124.652311 -27.796162 50.070570 7.407656 0.075678 -3.713078 -12.002785 8.774362 -6.256841 4.082637 8.861885 -1.189260 -0.226719 -7.760329 3.443082 -0.083115 0.422271 0.019924 -26.467830 23.032181 -2.650338 31.933538 2.602678 -9.191149 4.199458 -11.420772 -1.575045 0.465869 0.061790 0.216398
5.999187 90.173825 15.961529 -31.558057 -10.093447 1.019385 -2.004688 -0.851433 0.404958 -0.574439 -0.081503 0.143960 -0.574439 -0.081503 0.143960 -0.430810 -0.061262 0.107893 5.062386 14.375317 -3.989073 11.042808 -8.894985 -9.437119 7.125274 4.198245 -6.937239 57.550934 13.191061 -26.120355 143.065432 -14.294957 -42.167555 9.687758 0.783080 1.374273 -0.235969 10.744540 8.805873 -38.448913 17.269132 28.136352 -123.422742 -26.632939 45.453331 7.613646 -0.321294 -3.976065 -11.552719 8.967009 -6.206837 3.755605 8.994271 -1.256179 -0.267383 -7.749738 3.459102 -0.072379 0.347644 0.033707 -26.956965 23.165739 -2.887122 32.153967 2.677646 -9.255338 4.286816 -11.441474 -1.504827 0.440588 0.037183 0.196262
6.023501 90.193793 15.954945 -31.584599 -10.250593 1.020821 -2.146925 -1.016364 0.720640 -0.696992 -0.215059 0.280747 -0.696992 -0.215059 0.280747 -0.522645 -0.161614 0.210315 5.213811 14.607965 -4.160601 11.360985 -8.422390 -9.784142 7.527544 5.434448 -7.683405 59.060431 12.529093 -26.614100 142.483349 -12.857926 -45.911777 9.698711 0.648220 0.985742 -0.199804 12.121228 7.679701 -37.316480 18.845718 27.458408 -123.898763 -25.052180 41.621115 7.825183 -0.597718 -4.395634 -11.159127 9.074678 -6.148188 3.502258 9.128114 -1.312432 -0.278742 -7.716251 3.463960 -0.063462 0.258509 0.046956 -27.278513 23.231089 -3.048773 32.347187 2.778442 -9.300561 4.396606 -11.444594 -1.441315 0.391043 -0.006477 0.168206
6.063441 90.215818 15.946446 -31.580145 -10.333472 1.029096 -2.280449 -1.176190 0.987169 -0.816897 -0.347913 0.401715 -0.816897 -0.347913 0.401715 -0.612443 -0.261472 0.300821 5.331346 14.777094 -4.292078 11.607482 -8.076136 -10.050597 7.970165 6.357646 -8.315563 60.460923 12.136405 -26.868711 141.271019 -11.615455 -49.755918 9.749832 0.423151 0.468376 0.008207 13.674808 6.681243 -35.852712 19.735421 27.569648 -125.791814 -23.573440 38.288131 8.026284 -0.662808 -4.907118 -10.970124 9.085386 -6.135948 3.360076 9.254666 -1.345195 -0.257158 -7.678325 3.460958 -0.055137 0.172945 0.058881 -27.454765 23.208956 -3.130926 32.421776 2.900690 -9.322690 4.476304 -11.459031 -1.373543 0.320641 -0.041223 0.135296
6.103598 90.245079 15.945127 -31.539157 -10.474992 1.037514 -2.074320 -1.382588 1.013030 -0.793045 -0.504757 0.416863 -0.793045 -0.504757 0.416863 -0.594436 -0.379110 0.311991 5.203887 14.969507 -4.210396 11.315192 -7.749368 -9.826369 7.820254 7.194299 -8.314062 61.555992 11.905979 -27.129018 140.122529 -11.123980 -53.894197 9.767933 0.287988 0.196646 -0.495340 15.223744 6.126686 -33.859745 20.778765 28.109033 -127.856108 -21.062464 35.288310 8.045684 -1.050045 -5.329459 -11.007727 9.152189 -6.192287 3.334826 9.350148 -1.350109 -0.209036 -7.617054 3.444656 -0.046512 0.074330 0.069609 -27.425146 23.227091 -3.171840 32.339373 3.033703 -9.301964 4.556088 -11.451657 -1.328991 0.236160 -0.088846 0.101647
6.159282 90.275415 15.945836 -31.390710 -10.526582 1.059643 -1.730052 -1.717765 0.867471 -0.682805 -0.687352 0.367394 -0.682805 -0.687352 0.367394 -0.511685 -0.515926 0.274775 4.910362 15.194779 -3.991251 10.660693 -7.400259 -9.282995 7.278118 7.879209 -8.024191 62.442862 11.736657 -27.392628 138.550712 -11.454979 -57.692912 9.690595 0.187331 0.110853 -1.561637 16.388537 5.806445 -32.481130 21.639166 28.284530 -129.538135 -18.525947 32.134310 8.003083 -1.252858 -5.816138 -11.304881 9.121260 -6.313222 3.391267 9.424605 -1.331239 -0.143009 -7.571443 3.422700 -0.035827 -0.003382 0.080491 -27.340534 23.134461 -3.162780 32.169129 3.175307 -9.238017 4.594064 -11.462108 -1.297675 0.151871 -0.112587 0.070180
6.219309 90.295809 15.955987 -31.133643 -10.537252 1.066106 -1.467492 -1.953064 0.727968 -0.609726 -0.830320 0.320702 -0.609726 -0.830320 0.320702 -0.456851 -0.623061 0.239694 4.609475 15.368765 -3.793933 10.008709 -7.140004 -8.786075 7.007944 8.005054 -7.725213 63.139565 11.817094 -27.533342 135.922839 -12.617463 -60.318619 9.510073 0.108305 -0.134668 -2.653734 16.946131 5.408402 -31.754244 22.269855 28.250540 -130.705852 -15.795483 29.190883 7.850629 -1.477244 -6.298700 -11.782712 9.066235 -6.453576 3.506456 9.474496 -1.308995 -0.093304 -7.566124 3.412736 -0.024446 -0.043592 0.087548 -27.154922 23.014041 -3.091876 31.878129 3.294348 -9.140960 4.588649 -11.509718 -1.277560 0.080949 -0.084978 0.043320
6.281608 90.304193 15.971056 -30.826794 -10.528678 1.045952 -1.397991 -2.051121 0.698815 -0.607377 -0.900843 0.316508 -0.607377 -0.900843 0.316508 -0.455057 -0.675948 0.236481 4.388586 15.471978 -3.704137 9.553769 -6.985464 -8.527574 7.264913 7.879743 -7.545452 63.395109 11.993510 -27.884049 132.231517 -14.585502 -61.671870 9.328954 0.029720 -0.706573 -3.244255 17.129001 4.968829 -31.217678 22.987822 28.548414 -132.124469 -12.407821 27.790154 7.596485 -1.855138 -6.519431 -12.339896 9.021642 -6.585794 3.659401 9.480756 -1.281329 -0.069247 -7.587283 3.417632 -0.015514 -0.043563 0.085932 -26.920047 22.910908 -2.970818 31.561266 3.374854 -9.034392 4.481780 -11.555338 -1.267119 0.039159 -0.036767 0.027146
